<?xml version="1.0" standalone="no"?>
<!DOCTYPE svg PUBLIC "-//W3C//DTD SVG 20010904//EN"
 "http://www.w3.org/TR/2001/REC-SVG-20010904/DTD/svg10.dtd">
<svg version="1.0" xmlns="http://www.w3.org/2000/svg"
 width="512.000000pt" height="512.000000pt" viewBox="0 0 512.000000 512.000000"
 preserveAspectRatio="xMidYMid meet">
<metadata>
Created by potrace 1.15, written by Peter Selinger 2001-2017
</metadata>
<g transform="translate(0.000000,512.000000) scale(0.100000,-0.100000)"
fill="#000000" stroke="none">
<path d="M2427 4780 c-137 -35 -231 -140 -212 -238 10 -53 27 -81 81 -132 53
-50 74 -92 74 -147 l0 -38 -114 -22 c-108 -21 -276 -71 -359 -107 l-37 -16
-19 32 c-32 51 -34 95 -11 172 36 116 10 190 -83 238 -34 17 -54 20 -128 16
-76 -4 -97 -9 -161 -41 -136 -67 -221 -177 -222 -287 -1 -93 58 -157 159 -175
58 -11 111 -43 142 -88 l27 -39 -49 -42 c-91 -75 -195 -180 -257 -258 -34 -43
-64 -78 -66 -78 -3 0 -20 9 -38 21 -40 24 -79 88 -89 144 -9 51 -39 104 -73
130 -40 29 -137 33 -195 7 -132 -59 -237 -230 -237 -385 1 -147 95 -230 225
-198 99 25 144 25 195 1 l47 -22 -29 -74 c-40 -104 -75 -239 -90 -350 l-12
-94 -33 0 c-53 0 -104 27 -163 85 -30 30 -68 59 -83 64 -71 27 -164 -2 -213
-66 -52 -69 -68 -127 -69 -253 0 -106 2 -120 29 -178 48 -104 133 -162 214
-147 53 10 81 27 132 81 50 53 92 74 147 74 l38 0 22 -114 c21 -108 71 -276
107 -359 l16 -37 -32 -19 c-51 -32 -95 -34 -172 -11 -116 36 -190 10 -238 -83
-17 -34 -20 -54 -16 -128 4 -76 9 -97 41 -161 67 -136 177 -221 287 -222 95
-1 150 49 176 162 15 64 45 110 92 143 l34 23 42 -49 c75 -91 180 -195 258
-257 43 -34 78 -64 78 -66 0 -3 -9 -20 -21 -38 -24 -40 -88 -79 -144 -89 -51
-9 -104 -39 -130 -73 -29 -40 -33 -137 -7 -195 59 -132 230 -237 385 -237 147
1 230 95 198 225 -25 99 -25 144 -1 195 l22 47 74 -29 c104 -40 239 -75 350
-90 l94 -12 0 -33 c0 -53 -27 -104 -85 -163 -30 -30 -59 -68 -64 -83 -27 -71
2 -164 66 -213 69 -52 127 -68 253 -69 106 0 120 2 178 29 104 48 162 133 147
214 -10 53 -27 81 -81 132 -54 51 -74 92 -74 149 l0 40 48 6 c119 17 313 71
425 119 l37 16 19 -32 c32 -51 34 -95 11 -172 -36 -116 -10 -190 83 -238 34
-17 54 -20 128 -16 76 4 97 9 161 41 136 67 221 177 222 287 1 93 -58 157
-159 175 -58 11 -111 43 -142 88 l-27 39 49 42 c91 75 195 180 257 258 34 43
64 78 66 78 3 0 20 -9 38 -21 40 -24 79 -88 89 -144 9 -51 39 -104 73 -130 40
-29 137 -33 195 -7 132 59 237 230 237 385 -1 147 -95 230 -225 198 -99 -25
-144 -25 -195 -1 l-47 22 29 74 c40 104 75 239 90 350 l12 94 33 0 c53 0 104
-27 163 -85 30 -30 68 -59 83 -64 71 -27 164 2 213 66 52 69 68 127 69 253 0
106 -2 120 -28 175 -34 73 -69 111 -122 136 -76 35 -139 18 -214 -58 -61 -62
-102 -83 -160 -83 l-40 0 -6 48 c-17 119 -71 313 -119 425 l-16 37 32 19 c51
32 95 34 172 11 116 -36 190 -10 238 83 17 34 20 54 16 128 -4 76 -9 97 -41
161 -67 136 -177 221 -287 222 -93 1 -157 -58 -175 -159 -11 -58 -43 -111 -88
-142 l-39 -27 -42 49 c-74 90 -160 176 -241 243 -44 36 -84 69 -89 73 -15 13
34 78 77 103 23 13 61 27 84 31 92 15 153 84 153 174 0 69 -25 125 -80 185
-144 156 -393 195 -493 77 -34 -41 -43 -92 -28 -156 25 -99 25 -144 1 -195
l-22 -47 -74 29 c-104 40 -239 75 -350 90 l-94 12 0 33 c0 53 27 104 85 163
59 60 75 92 75 147 0 83 -62 156 -164 196 -58 22 -217 32 -279 17z m243 -124
c48 -25 90 -66 90 -89 0 -10 -24 -44 -54 -75 -96 -101 -100 -116 -104 -344
l-4 -198 56 0 56 0 0 80 c0 79 0 80 26 80 68 0 362 -76 420 -108 10 -5 3 -24
-27 -76 -44 -75 -44 -71 22 -106 l37 -19 85 147 c47 81 90 165 97 187 14 48 9
151 -10 219 -15 48 -15 48 13 72 96 82 367 -64 367 -198 0 -35 -25 -54 -98
-72 -69 -17 -139 -60 -170 -104 -21 -29 -142 -235 -167 -283 -15 -28 -15 -28
28 -54 24 -14 47 -25 50 -25 4 0 23 29 44 65 20 36 41 65 46 65 37 0 345 -307
326 -324 -2 -2 -30 -18 -61 -36 -32 -17 -60 -36 -64 -41 -6 -10 45 -101 54
-95 168 96 284 164 308 183 45 33 82 93 99 160 23 88 24 89 51 102 21 9 33 8
68 -8 133 -58 227 -281 150 -357 -18 -19 -31 -24 -47 -20 -143 41 -150 42
-224 23 -52 -14 -343 -174 -343 -190 0 -18 41 -87 53 -87 6 0 38 16 70 35 32
19 62 33 67 30 25 -15 100 -263 125 -407 l6 -38 -81 0 -80 0 0 -56 0 -55 203
3 c234 4 245 7 341 103 30 30 61 55 69 55 30 0 76 -51 97 -108 27 -69 24 -186
-4 -242 -25 -48 -66 -90 -89 -90 -10 0 -44 24 -75 54 -101 96 -116 100 -344
104 l-198 4 0 -56 0 -56 80 0 c79 0 80 0 80 -26 0 -66 -76 -363 -108 -419 -6
-11 -22 -5 -76 26 -75 44 -71 44 -106 -22 l-19 -37 147 -85 c81 -47 165 -90
187 -97 48 -14 151 -9 219 10 l48 15 25 -30 c23 -26 25 -35 21 -90 -11 -132
-126 -275 -221 -275 -32 0 -67 42 -67 80 0 41 -57 147 -96 178 -50 40 -316
192 -326 186 -8 -5 -48 -78 -48 -88 0 -3 29 -22 65 -43 36 -20 65 -41 65 -45
0 -37 -307 -346 -324 -327 -2 2 -18 30 -36 61 -17 32 -36 60 -41 64 -10 6
-101 -45 -95 -54 40 -74 165 -285 183 -308 33 -45 93 -82 160 -99 88 -23 89
-24 102 -51 9 -21 8 -33 -8 -68 -58 -133 -281 -227 -357 -150 -19 18 -24 31
-20 47 52 179 48 205 -71 414 -48 84 -91 153 -95 153 -18 0 -88 -41 -88 -51 0
-6 16 -39 36 -74 l35 -64 -28 -14 c-73 -37 -248 -88 -385 -112 l-38 -6 0 81 0
80 -56 0 -55 0 3 -203 c4 -234 7 -245 103 -341 30 -30 55 -61 55 -69 0 -30
-51 -76 -108 -97 -69 -27 -186 -24 -242 4 -48 25 -90 66 -90 89 0 10 25 44 55
76 91 96 99 123 103 348 l4 193 -56 0 -56 0 0 -80 c0 -79 0 -80 -26 -80 -68 0
-362 76 -420 108 -10 5 -3 24 27 76 44 75 44 71 -22 106 l-37 19 -85 -147
c-47 -81 -90 -165 -97 -187 -14 -48 -9 -151 10 -219 l15 -48 -30 -25 c-26 -23
-35 -25 -90 -21 -132 11 -275 126 -275 221 0 32 42 67 80 67 41 0 147 57 178
96 40 50 192 316 186 326 -5 8 -78 48 -88 48 -3 0 -22 -29 -43 -65 -20 -36
-41 -65 -45 -65 -37 0 -346 307 -327 324 2 2 30 18 61 36 32 17 60 36 64 41 6
10 -45 101 -54 95 -74 -40 -285 -165 -308 -183 -46 -35 -82 -94 -102 -169 -12
-48 -24 -72 -43 -86 -26 -20 -27 -20 -71 0 -96 42 -178 168 -178 274 0 50 4
63 26 84 18 19 31 24 47 20 143 -41 150 -42 224 -23 52 14 343 174 343 190 0
18 -41 87 -53 87 -6 0 -38 -16 -70 -35 -32 -19 -62 -33 -67 -30 -25 15 -100
263 -125 408 l-6 37 81 0 80 0 0 56 0 55 -203 -3 c-234 -4 -245 -7 -341 -103
-30 -30 -61 -55 -69 -55 -30 0 -76 51 -97 108 -27 69 -24 186 4 242 25 48 66
90 89 90 10 0 44 -25 76 -55 96 -91 123 -99 349 -103 l192 -4 0 56 0 56 -80 0
c-79 0 -80 0 -80 26 0 68 76 362 108 420 5 10 24 3 76 -27 75 -44 71 -44 106
22 l19 37 -147 85 c-81 47 -165 90 -187 97 -48 14 -151 9 -219 -10 l-48 -15
-25 30 c-23 26 -25 35 -21 90 11 132 126 275 221 275 32 0 67 -42 67 -80 0
-41 57 -147 96 -178 50 -40 316 -192 326 -186 8 5 48 78 48 88 0 3 -29 22 -65
43 -36 20 -65 41 -65 45 0 37 307 346 324 327 2 -2 18 -30 36 -61 17 -32 36
-60 41 -64 10 -6 101 45 95 54 -40 74 -165 285 -183 308 -33 45 -93 82 -160
99 -88 23 -89 24 -102 51 -9 21 -8 33 8 68 58 133 281 227 357 150 19 -18 24
-31 20 -47 -41 -143 -42 -150 -23 -224 14 -52 174 -343 190 -343 18 0 87 41
87 53 0 6 -16 38 -35 70 -19 32 -33 62 -30 67 15 25 263 100 408 125 l37 6 0
-81 0 -80 56 0 55 0 -3 203 c-4 234 -7 245 -103 341 -30 30 -55 61 -55 69 0
29 51 76 103 97 65 25 193 23 247 -4z"/>
<path d="M2336 3626 c-243 -91 -246 -433 -3 -523 18 -6 61 -12 97 -12 187 -2
312 172 260 361 -16 55 -68 117 -128 151 -64 36 -163 46 -226 23z m164 -116
c55 -28 83 -72 88 -139 4 -65 -19 -109 -77 -148 -61 -41 -165 -24 -211 35 -51
64 -50 149 3 209 56 64 126 79 197 43z"/>
<path d="M3201 3169 c-96 -48 -151 -136 -151 -244 0 -108 55 -196 151 -244 49
-25 75 -31 124 -31 153 0 275 122 275 275 0 108 -55 196 -151 244 -49 25 -75
31 -124 31 -49 0 -75 -6 -124 -31z m222 -112 c133 -101 52 -311 -114 -295
-163 16 -204 237 -57 312 48 24 127 17 171 -17z"/>
<path d="M1685 2921 c-129 -34 -209 -138 -209 -271 0 -158 115 -272 275 -272
157 0 273 116 273 273 0 147 -105 263 -251 274 -32 2 -71 1 -88 -4z m122 -116
c72 -30 105 -80 105 -157 0 -88 -60 -149 -153 -156 -47 -4 -65 0 -93 17 -68
43 -100 129 -71 197 21 51 42 73 90 95 49 23 75 23 122 4z"/>
<path d="M2545 2791 c-203 -53 -282 -294 -148 -450 54 -63 123 -95 208 -95
292 -1 383 391 122 522 -48 24 -136 35 -182 23z m107 -111 c22 0 85 -55 104
-91 60 -118 -60 -262 -191 -228 -83 23 -137 109 -121 195 13 67 113 143 171
129 11 -3 28 -5 37 -5z"/>
<path d="M3172 2322 c-73 -26 -122 -69 -157 -136 -37 -73 -40 -165 -8 -237 65
-145 238 -206 379 -133 200 102 200 391 0 489 -72 35 -146 41 -214 17z m169
-118 c56 -29 97 -113 83 -171 -35 -150 -225 -186 -305 -57 -39 64 -22 166 36
214 47 39 127 45 186 14z"/>
<path d="M2193 2069 c-136 -26 -223 -132 -223 -272 0 -76 15 -120 60 -177 73
-92 229 -124 335 -68 102 53 150 134 150 248 0 80 -17 126 -70 188 -51 61
-166 98 -252 81z m135 -129 c36 -22 68 -69 78 -113 11 -52 -5 -96 -51 -142
-57 -57 -112 -68 -180 -35 -121 59 -130 210 -16 287 44 30 122 31 169 3z"/>
</g>
</svg>
